<svg viewBox="0 0 1400 900" xmlns="http://www.w3.org/2000/svg">
  <!-- Définitions -->
  <defs>
    <!-- Gradients -->
    <linearGradient id="bgGradient" x1="0%" y1="0%" x2="0%" y2="100%">
      <stop offset="0%" style="stop-color:#0a0e27;stop-opacity:1" />
      <stop offset="100%" style="stop-color:#1a1e37;stop-opacity:1" />
    </linearGradient>
    
    <linearGradient id="greenGlow" x1="0%" y1="0%" x2="0%" y2="100%">
      <stop offset="0%" style="stop-color:#00ff41;stop-opacity:0.3" />
      <stop offset="100%" style="stop-color:#00ff41;stop-opacity:0.1" />
    </linearGradient>
    
    <linearGradient id="redGlow" x1="0%" y1="0%" x2="0%" y2="100%">
      <stop offset="0%" style="stop-color:#ff4444;stop-opacity:0.3" />
      <stop offset="100%" style="stop-color:#ff4444;stop-opacity:0.1" />
    </linearGradient>
    
    <linearGradient id="blueGlow" x1="0%" y1="0%" x2="0%" y2="100%">
      <stop offset="0%" style="stop-color:#667eea;stop-opacity:0.3" />
      <stop offset="100%" style="stop-color:#667eea;stop-opacity:0.1" />
    </linearGradient>
    
    <linearGradient id="orangeGlow" x1="0%" y1="0%" x2="0%" y2="100%">
      <stop offset="0%" style="stop-color:#ff8c00;stop-opacity:0.3" />
      <stop offset="100%" style="stop-color:#ff8c00;stop-opacity:0.1" />
    </linearGradient>
    
    <!-- Filtres pour glow effect -->
    <filter id="glow">
      <feGaussianBlur stdDeviation="4" result="coloredBlur"/>
      <feMerge>
        <feMergeNode in="coloredBlur"/>
        <feMergeNode in="SourceGraphic"/>
      </feMerge>
    </filter>
  </defs>
  
  <!-- Background -->
  <rect width="1400" height="900" fill="url(#bgGradient)"/>
  
  <!-- Grid pattern -->
  <g opacity="0.1">
    <path d="M 0 0 L 1400 0 M 0 50 L 1400 50 M 0 100 L 1400 100 M 0 150 L 1400 150 M 0 200 L 1400 200 M 0 250 L 1400 250 M 0 300 L 1400 300 M 0 350 L 1400 350 M 0 400 L 1400 400 M 0 450 L 1400 450 M 0 500 L 1400 500 M 0 550 L 1400 550 M 0 600 L 1400 600 M 0 650 L 1400 650 M 0 700 L 1400 700 M 0 750 L 1400 750 M 0 800 L 1400 800 M 0 850 L 1400 850 M 0 900 L 1400 900" stroke="#00ff41" stroke-width="0.5"/>
    <path d="M 0 0 L 0 900 M 50 0 L 50 900 M 100 0 L 100 900 M 150 0 L 150 900 M 200 0 L 200 900 M 250 0 L 250 900 M 300 0 L 300 900 M 350 0 L 350 900 M 400 0 L 400 900 M 450 0 L 450 900 M 500 0 L 500 900 M 550 0 L 550 900 M 600 0 L 600 900 M 650 0 L 650 900 M 700 0 L 700 900 M 750 0 L 750 900 M 800 0 L 800 900 M 850 0 L 850 900 M 900 0 L 900 900 M 950 0 L 950 900 M 1000 0 L 1000 900 M 1050 0 L 1050 900 M 1100 0 L 1100 900 M 1150 0 L 1150 900 M 1200 0 L 1200 900 M 1250 0 L 1250 900 M 1300 0 L 1300 900 M 1350 0 L 1350 900 M 1400 0 L 1400 900" stroke="#00ff41" stroke-width="0.5"/>
  </g>
  
  <!-- Title -->
  <text x="700" y="40" font-family="Courier New, monospace" font-size="28" fill="#00ff41" text-anchor="middle" font-weight="bold" filter="url(#glow)">
    🍓 RASPPUNZEL - MULTI-MODE ARCHITECTURE
  </text>
  
  <!-- External Zone (Left) -->
  <g id="external-zone">
    <rect x="30" y="80" width="280" height="650" rx="8" fill="none" stroke="#ff4444" stroke-width="2" stroke-dasharray="5,5"/>
    <text x="170" y="105" font-family="Courier New" font-size="14" fill="#ff4444" text-anchor="middle" font-weight="bold">ZONE EXTERNE</text>
    
    <!-- Ligolo Proxy Server -->
    <rect x="50" y="130" width="240" height="100" rx="6" fill="url(#redGlow)" stroke="#ff4444" stroke-width="2"/>
    <text x="170" y="160" font-family="Courier New" font-size="13" fill="#ff4444" text-anchor="middle" font-weight="bold">Ligolo-ng Proxy</text>
    <text x="170" y="180" font-family="Courier New" font-size="10" fill="#ff9999" text-anchor="middle">Attack Server / C2</text>
    <text x="170" y="195" font-family="Courier New" font-size="9" fill="#ff9999" text-anchor="middle">Port: 443 (HTTPS)</text>
    <text x="170" y="210" font-family="Courier New" font-size="9" fill="#ff9999" text-anchor="middle">Let's Encrypt SSL</text>
    
    <!-- Red Team Auditor -->
    <rect x="50" y="250" width="240" height="70" rx="6" fill="url(#redGlow)" stroke="#ff4444" stroke-width="2"/>
    <text x="170" y="275" font-family="Courier New" font-size="13" fill="#ff4444" text-anchor="middle" font-weight="bold">Red Team Operator</text>
    <text x="170" y="295" font-family="Courier New" font-size="10" fill="#ff9999" text-anchor="middle">Remote Access</text>
    <text x="170" y="310" font-family="Courier New" font-size="9" fill="#ff9999" text-anchor="middle">SSH / Web Dashboard</text>
    
    <!-- WiFi Auditor -->
    <rect x="50" y="340" width="240" height="70" rx="6" fill="url(#orangeGlow)" stroke="#ff8c00" stroke-width="2"/>
    <text x="170" y="365" font-family="Courier New" font-size="13" fill="#ff8c00" text-anchor="middle" font-weight="bold">WiFi Pentester</text>
    <text x="170" y="385" font-family="Courier New" font-size="10" fill="#ffaa44" text-anchor="middle">On-site Access</text>
    <text x="170" y="400" font-family="Courier New" font-size="9" fill="#ffaa44" text-anchor="middle">Hidden AP Connection</text>
    
    <!-- Usage Modes -->
    <rect x="50" y="430" width="240" height="280" rx="6" fill="rgba(0,0,0,0.5)" stroke="#00ff41" stroke-width="1"/>
    <text x="170" y="455" font-family="Courier New" font-size="12" fill="#00ff41" text-anchor="middle" font-weight="bold">MODES D'UTILISATION</text>
    
    <text x="60" y="480" font-family="Courier New" font-size="10" fill="#ff4444" font-weight="bold">Mode 1: Network Pivot</text>
    <text x="60" y="495" font-family="Courier New" font-size="8" fill="#ffaaaa">• Tunnel Ligolo chiffré</text>
    <text x="60" y="507" font-family="Courier New" font-size="8" fill="#ffaaaa">• Accès réseau interne</text>
    <text x="60" y="519" font-family="Courier New" font-size="8" fill="#ffaaaa">• Port forwarding</text>
    
    <text x="60" y="545" font-family="Courier New" font-size="10" fill="#ff8c00" font-weight="bold">Mode 2: WiFi Hotspot</text>
    <text x="60" y="560" font-family="Courier New" font-size="8" fill="#ffaa44">• AP d'administration</text>
    <text x="60" y="572" font-family="Courier New" font-size="8" fill="#ffaa44">• SSID caché</text>
    <text x="60" y="584" font-family="Courier New" font-size="8" fill="#ffaa44">• Accès direct web</text>
    
    <text x="60" y="610" font-family="Courier New" font-size="10" fill="#00ff41" font-weight="bold">Mode 3: WiFi Pentest</text>
    <text x="60" y="625" font-family="Courier New" font-size="8" fill="#88ff88">• WPA/WPA2 cracking</text>
    <text x="60" y="637" font-family="Courier New" font-size="8" fill="#88ff88">• Evil Twin attacks</text>
    <text x="60" y="649" font-family="Courier New" font-size="8" fill="#88ff88">• Monitor mode</text>
    <text x="60" y="661" font-family="Courier New" font-size="8" fill="#88ff88">• Handshake capture</text>
    
    <text x="60" y="685" font-family="Courier New" font-size="9" fill="#667eea" font-weight="bold">Scenarios:</text>
    <text x="60" y="697" font-family="Courier New" font-size="8" fill="#aabbff">• Pentest / Red Team</text>
    <text x="60" y="707" font-family="Courier New" font-size="8" fill="#aabbff">• Network infiltration</text>
  </g>
  
  <!-- RaspPunzel Core (Center) -->
  <g id="rasppunzel-core">
    <rect x="360" y="200" width="340" height="380" rx="8" fill="url(#greenGlow)" stroke="#00ff41" stroke-width="3" filter="url(#glow)"/>
    <text x="530" y="230" font-family="Courier New" font-size="16" fill="#00ff41" text-anchor="middle" font-weight="bold">RASPPUNZEL CORE</text>
    <text x="530" y="248" font-family="Courier New" font-size="11" fill="#88ff88" text-anchor="middle">Raspberry Pi 3B+ / 4 • Multi WiFi Adapters</text>
    
    <!-- Hardware -->
    <text x="380" y="275" font-family="Courier New" font-size="10" fill="#00ff41" font-weight="bold">Hardware:</text>
    <text x="380" y="290" font-family="Courier New" font-size="8" fill="#88ff88">• RPi 3B+ 64GB SD</text>
    <text x="380" y="302" font-family="Courier New" font-size="8" fill="#88ff88">• Alfa AWUS036NEH</text>
    <text x="380" y="314" font-family="Courier New" font-size="8" fill="#88ff88">• Alfa AWUS036ACH</text>
    <text x="380" y="326" font-family="Courier New" font-size="8" fill="#88ff88">• BrosTrend AC1L</text>
    <text x="380" y="338" font-family="Courier New" font-size="8" fill="#88ff88">• Powerbank</text>
    
    <!-- Software -->
    <text x="530" y="275" font-family="Courier New" font-size="10" fill="#00ff41" font-weight="bold">Software:</text>
    <text x="530" y="290" font-family="Courier New" font-size="8" fill="#88ff88">• Kali Linux ARM</text>
    <text x="530" y="302" font-family="Courier New" font-size="8" fill="#88ff88">• Ligolo-ng Agent</text>
    <text x="530" y="314" font-family="Courier New" font-size="8" fill="#88ff88">• Web Dashboard</text>
    <text x="530" y="326" font-family="Courier New" font-size="8" fill="#88ff88">• Pentest Suite</text>
    <text x="530" y="338" font-family="Courier New" font-size="8" fill="#88ff88">• Hostapd/DNSMasq</text>
    
    <!-- Network Info -->
    <rect x="380" y="355" width="300" height="80" rx="4" fill="rgba(0,0,0,0.5)" stroke="#00ff41" stroke-width="1"/>
    <text x="530" y="375" font-family="Courier New" font-size="10" fill="#00ff41" text-anchor="middle" font-weight="bold">NETWORK INTERFACES</text>
    <text x="390" y="395" font-family="Courier New" font-size="8" fill="#88ff88">wlan0: Built-in (Internet)</text>
    <text x="390" y="407" font-family="Courier New" font-size="8" fill="#88ff88">wlx***: Admin AP (10.0.0.1)</text>
    <text x="390" y="419" font-family="Courier New" font-size="8" fill="#88ff88">wlx***: Pentest (Monitor mode)</text>
    <text x="390" y="431" font-family="Courier New" font-size="8" fill="#88ff88">ligolo: Tunnel interface</text>
    
    <!-- Access Info -->
    <rect x="380" y="445" width="300" height="60" rx="4" fill="rgba(0,0,0,0.7)" stroke="#00ff41" stroke-width="1"/>
    <text x="530" y="465" font-family="Courier New" font-size="11" fill="#00ff41" text-anchor="middle" font-weight="bold">ACCESS POINTS</text>
    <text x="530" y="482" font-family="Courier New" font-size="9" fill="#88ff88" text-anchor="middle">Web: http://10.0.0.1:8080</text>
    <text x="530" y="496" font-family="Courier New" font-size="9" fill="#88ff88" text-anchor="middle">SSH: ssh kali@10.0.0.1</text>
    
    <!-- Connections -->
    <text x="530" y="525" font-family="Courier New" font-size="9" fill="#00ff41" text-anchor="middle" font-weight="bold">Default: admin / rasppunzel</text>
    <text x="530" y="545" font-family="Courier New" font-size="8" fill="#ffdd57" text-anchor="middle">⚠️ Change password on first login!</text>
  </g>
  
  <!-- Internal Network (Right) -->
  <g id="internal-network">
    <rect x="750" y="80" width="620" height="500" rx="8" fill="none" stroke="#667eea" stroke-width="2" stroke-dasharray="5,5"/>
    <text x="1060" y="105" font-family="Courier New" font-size="14" fill="#667eea" text-anchor="middle" font-weight="bold">RÉSEAU INTERNE SÉCURISÉ</text>
    <text x="1060" y="120" font-family="Courier New" font-size="10" fill="#aabbff" text-anchor="middle">Mode 1 &amp; 2: Network Access</text>
    
    <!-- Mode 1 Resources -->
    <text x="770" y="150" font-family="Courier New" font-size="11" fill="#667eea" font-weight="bold">Mode 1: Pivot Resources</text>
    
    <!-- Domain Controller -->
    <rect x="780" y="165" width="180" height="70" rx="6" fill="url(#blueGlow)" stroke="#667eea" stroke-width="2"/>
    <text x="870" y="190" font-family="Courier New" font-size="11" fill="#667eea" text-anchor="middle" font-weight="bold">Domain Controller</text>
    <text x="870" y="205" font-family="Courier New" font-size="9" fill="#aabbff" text-anchor="middle">RDP/SMB/LDAP</text>
    <text x="870" y="220" font-family="Courier New" font-size="8" fill="#aabbff" text-anchor="middle">192.168.1.10</text>
    
    <!-- Database -->
    <rect x="980" y="165" width="180" height="70" rx="6" fill="url(#blueGlow)" stroke="#667eea" stroke-width="2"/>
    <text x="1070" y="190" font-family="Courier New" font-size="11" fill="#667eea" text-anchor="middle" font-weight="bold">Database Server</text>
    <text x="1070" y="205" font-family="Courier New" font-size="9" fill="#aabbff" text-anchor="middle">MySQL/MSSQL</text>
    <text x="1070" y="220" font-family="Courier New" font-size="8" fill="#aabbff" text-anchor="middle">192.168.1.20</text>
    
    <!-- File Server -->
    <rect x="780" y="255" width="180" height="70" rx="6" fill="url(#blueGlow)" stroke="#667eea" stroke-width="2"/>
    <text x="870" y="280" font-family="Courier New" font-size="11" fill="#667eea" text-anchor="middle" font-weight="bold">File Server</text>
    <text x="870" y="295" font-family="Courier New" font-size="9" fill="#aabbff" text-anchor="middle">SMB Shares</text>
    <text x="870" y="310" font-family="Courier New" font-size="8" fill="#aabbff" text-anchor="middle">192.168.1.30</text>
    
    <!-- Workstation -->
    <rect x="980" y="255" width="180" height="70" rx="6" fill="url(#blueGlow)" stroke="#667eea" stroke-width="2"/>
    <text x="1070" y="280" font-family="Courier New" font-size="11" fill="#667eea" text-anchor="middle" font-weight="bold">Admin Workstation</text>
    <text x="1070" y="295" font-family="Courier New" font-size="9" fill="#aabbff" text-anchor="middle">SSH/WinRM</text>
    <text x="1070" y="310" font-family="Courier New" font-size="8" fill="#aabbff" text-anchor="middle">192.168.1.40</text>
    
    <!-- Mode 3 WiFi Targets -->
    <text x="770" y="360" font-family="Courier New" font-size="11" fill="#ff8c00" font-weight="bold">Mode 3: WiFi Targets</text>
    
    <!-- Target WiFi AP -->
    <rect x="780" y="375" width="180" height="70" rx="6" fill="url(#orangeGlow)" stroke="#ff8c00" stroke-width="2"/>
    <text x="870" y="400" font-family="Courier New" font-size="11" fill="#ff8c00" text-anchor="middle" font-weight="bold">Corporate WiFi</text>
    <text x="870" y="415" font-family="Courier New" font-size="9" fill="#ffaa44" text-anchor="middle">WPA2-Enterprise</text>
    <text x="870" y="430" font-family="Courier New" font-size="8" fill="#ffaa44" text-anchor="middle">Target Network</text>
    
    <!-- WiFi Clients -->
    <rect x="980" y="375" width="180" height="70" rx="6" fill="url(#orangeGlow)" stroke="#ff8c00" stroke-width="2"/>
    <text x="1070" y="400" font-family="Courier New" font-size="11" fill="#ff8c00" text-anchor="middle" font-weight="bold">WiFi Clients</text>
    <text x="1070" y="415" font-family="Courier New" font-size="9" fill="#ffaa44" text-anchor="middle">Laptops/Phones</text>
    <text x="1070" y="430" font-family="Courier New" font-size="8" fill="#ffaa44" text-anchor="middle">Evil Twin Targets</text>
    
    <!-- Network Switch -->
    <rect x="880" y="475" width="180" height="70" rx="6" fill="url(#blueGlow)" stroke="#667eea" stroke-width="2"/>
    <text x="970" y="500" font-family="Courier New" font-size="11" fill="#667eea" text-anchor="middle" font-weight="bold">Internal Switch</text>
    <text x="970" y="515" font-family="Courier New" font-size="9" fill="#aabbff" text-anchor="middle">Physical Connection</text>
    <text x="970" y="530" font-family="Courier New" font-size="8" fill="#aabbff" text-anchor="middle">Ethernet Interface</text>
  </g>
  
  <!-- Hardware Requirements (Bottom) -->
  <g id="hardware-requirements">
    <rect x="750" y="600" width="620" height="130" rx="8" fill="rgba(20,25,45,0.8)" stroke="#00ff41" stroke-width="2"/>
    <text x="1060" y="625" font-family="Courier New" font-size="12" fill="#00ff41" text-anchor="middle" font-weight="bold">MATÉRIEL REQUIS</text>
    
    <text x="770" y="650" font-family="Courier New" font-size="10" fill="#00ff41" font-weight="bold">Core Hardware:</text>
    <text x="770" y="665" font-family="Courier New" font-size="8" fill="#88ff88">• Raspberry Pi 3 Model B+</text>
    <text x="770" y="677" font-family="Courier New" font-size="8" fill="#88ff88">• MicroSD 64GB Class 10</text>
    <text x="770" y="689" font-family="Courier New" font-size="8" fill="#88ff88">• Raspberry Pi Case</text>
    <text x="770" y="701" font-family="Courier New" font-size="8" fill="#88ff88">• USB Male to Female cables</text>
    
    <text x="1000" y="650" font-family="Courier New" font-size="10" fill="#00ff41" font-weight="bold">WiFi Adapters:</text>
    <text x="1000" y="665" font-family="Courier New" font-size="8" fill="#88ff88">• Alfa AWUS036NEH (2.4GHz)</text>
    <text x="1000" y="677" font-family="Courier New" font-size="8" fill="#88ff88">• Alfa AWUS036ACH (5GHz)</text>
    <text x="1000" y="689" font-family="Courier New" font-size="8" fill="#88ff88">• BrosTrend AC1L (AP Mode)</text>
    <text x="1000" y="701" font-family="Courier New" font-size="8" fill="#88ff88">• Support monitor mode</text>
    
    <text x="1230" y="650" font-family="Courier New" font-size="10" fill="#00ff41" font-weight="bold">Accessories:</text>
    <text x="1230" y="665" font-family="Courier New" font-size="8" fill="#88ff88">• Powerbank 10000mAh+</text>
    <text x="1230" y="677" font-family="Courier New" font-size="8" fill="#88ff88">• RJ45 Wireless Keyboard</text>
    <text x="1230" y="689" font-family="Courier New" font-size="8" fill="#88ff88">• Portable et discret</text>
  </g>
  
  <!-- Connection Lines -->
  <g id="connections">
    <!-- Mode 1: Ligolo Connection -->
    <path d="M 290 180 Q 325 180 360 250" fill="none" stroke="#ff4444" stroke-width="3" stroke-dasharray="8,4" marker-end="url(#arrowRed)"/>
    <text x="310" y="200" font-family="Courier New" font-size="9" fill="#ff4444" transform="rotate(-15 310 200)">Mode 1: Ligolo</text>
    
    <!-- Mode 2: WiFi Hotspot -->
    <path d="M 290 375 Q 325 375 360 350" fill="none" stroke="#ff8c00" stroke-width="3" marker-end="url(#arrowOrange)"/>
    <text x="305" y="355" font-family="Courier New" font-size="9" fill="#ff8c00">Mode 2: WiFi</text>
    
    <!-- Core to Internal Network -->
    <path d="M 700 320 L 750 240" fill="none" stroke="#667eea" stroke-width="2" marker-end="url(#arrowBlue)"/>
    <path d="M 700 350 L 750 300" fill="none" stroke="#667eea" stroke-width="2" marker-end="url(#arrowBlue)"/>
    <path d="M 700 380 L 750 360" fill="none" stroke="#667eea" stroke-width="2" marker-end="url(#arrowBlue)"/>
    <path d="M 700 410 L 750 420" fill="none" stroke="#667eea" stroke-width="2" marker-end="url(#arrowBlue)"/>
    
    <!-- Core to WiFi Targets -->
    <path d="M 700 440 L 750 410" fill="none" stroke="#ff8c00" stroke-width="2" stroke-dasharray="4,2" marker-end="url(#arrowOrange)"/>
    <text x="710" y="420" font-family="Courier New" font-size="8" fill="#ff8c00">Mode 3</text>
    
    <!-- Ethernet Connection -->
    <path d="M 530 580 L 970 475" fill="none" stroke="#00ff41" stroke-width="2" marker-end="url(#arrowGreen)"/>
    <text x="700" y="520" font-family="Courier New" font-size="8" fill="#00ff41">Ethernet</text>
  </g>
  
  <!-- Arrow markers -->
  <defs>
    <marker id="arrowRed" markerWidth="10" markerHeight="10" refX="9" refY="3" orient="auto" markerUnits="strokeWidth">
      <path d="M0,0 L0,6 L9,3 z" fill="#ff4444" />
    </marker>
    <marker id="arrowOrange" markerWidth="10" markerHeight="10" refX="9" refY="3" orient="auto" markerUnits="strokeWidth">
      <path d="M0,0 L0,6 L9,3 z" fill="#ff8c00" />
    </marker>
    <marker id="arrowGreen" markerWidth="10" markerHeight="10" refX="9" refY="3" orient="auto" markerUnits="strokeWidth">
      <path d="M0,0 L0,6 L9,3 z" fill="#00ff41" />
    </marker>
    <marker id="arrowBlue" markerWidth="10" markerHeight="10" refX="9" refY="3" orient="auto" markerUnits="strokeWidth">
      <path d="M0,0 L0,6 L9,3 z" fill="#667eea" />
    </marker>
  </defs>
  
  <!-- Footer -->
  <text x="700" y="880" font-family="Courier New" font-size="10" fill="#00ff41" text-anchor="middle" opacity="0.7">
    RaspPunzel v2.0 - Professional Penetration Testing Platform | For Authorized Testing Only
  </text>
</svg>